HIERARCHY
ROOT hip
{
	OFFSET 0.000000 0.000000 0.000000 
	CHANNELS 6 Xposition Yposition Zposition Xrotation Zrotation Yrotation
	JOINT abdomen
	{
		OFFSET 0.000000 3.402643 0.000000 
		CHANNELS 3 Xrotation Zrotation Yrotation
		JOINT chest
		{
			OFFSET 0.000000 8.438565 -0.680529 
			CHANNELS 3 Xrotation Zrotation Yrotation
			JOINT neck
			{
				OFFSET 0.000000 10.207942 -0.272212 
				CHANNELS 3 Xrotation Zrotation Yrotation
				JOINT head
				{
					OFFSET 0.000000 3.130431 0.000000 
					CHANNELS 3 Xrotation Zrotation Yrotation
					End Site
					{
						OFFSET 0.000000 3.130435 0.000000 
					}
				}
			}
			JOINT lCollar
			{
				OFFSET 3.470700 6.669187 -0.816635 
				CHANNELS 3 Yrotation Zrotation Xrotation
				JOINT lShldr
				{
					OFFSET 3.198488 0.000000 0.000000 
					CHANNELS 3 Zrotation Yrotation Xrotation
					JOINT lForeArm
					{
						OFFSET 10.139888 0.000000 0.000000 
						CHANNELS 3 Yrotation Zrotation Xrotation
						JOINT lHand
						{
							OFFSET 8.370511 0.000000 0.000000 
							CHANNELS 3 Zrotation Yrotation Xrotation
							End Site
							{
								OFFSET 4.083176 0.000000 0.000000 
							}
						}
					}
				}
			}
			JOINT rCollar
			{
				OFFSET -3.470700 6.669187 -0.816635 
				CHANNELS 3 Yrotation Zrotation Xrotation
				JOINT rShldr
				{
					OFFSET -3.198488 0.000000 0.000000 
					CHANNELS 3 Zrotation Yrotation Xrotation
					JOINT rForeArm
					{
						OFFSET -10.139888 0.000000 0.000000 
						CHANNELS 3 Yrotation Zrotation Xrotation
						JOINT rHand
						{
							OFFSET -8.370511 0.000000 0.000000 
							CHANNELS 3 Zrotation Yrotation Xrotation
							End Site
							{
								OFFSET -4.083176 0.000000 0.000000 
							}
						}
					}
				}
			}
		}
	}
	JOINT lThigh
	{
		OFFSET 5.308129 -1.633274 1.361059 
		CHANNELS 3 Xrotation Zrotation Yrotation
		JOINT lShin
		{
			OFFSET -2.041588 -20.007561 0.000000 
			CHANNELS 3 Xrotation Zrotation Yrotation
			JOINT lFoot
			{
				OFFSET 0.000000 -19.190928 -1.224953 
				CHANNELS 3 Xrotation Yrotation Zrotation
				End Site
				{
					OFFSET 0.000000 -2.449906 4.627600 
				}
			}
		}
	}
	JOINT rThigh
	{
		OFFSET -5.308129 -1.633274 1.361059 
		CHANNELS 3 Xrotation Zrotation Yrotation
		JOINT rShin
		{
			OFFSET 2.041588 -20.007561 0.000000 
			CHANNELS 3 Xrotation Zrotation Yrotation
			JOINT rFoot
			{
				OFFSET 0.000000 -19.190928 -1.224953 
				CHANNELS 3 Xrotation Yrotation Zrotation
				End Site
				{
					OFFSET 0.000000 -2.449906 4.627600 
				}
			}
		}
	}
}
MOTION
Frames: 9
Frame Time: 0.033333
4.356109 41.986607 61.475651 0.869141 0.703125 -145.195190 17.822266 5.244141 -2.177734 -13.505858 -0.439453 -3.183673 -6.416016 -4.228516 -12.158923 25.830076 9.541016 -11.953124 1.201172 5.361329 0.223697 -90.253906 -44.091801 72.148438 -56.357422 -2.929688 -27.020987 15.078126 15.341799 3.488914 8.427734 2.363281 -0.166418 73.437500 21.982422 -10.712892 70.322258 3.603516 -61.503906 -3.955079 -10.214844 0.156250 1.708532 13.008111 1.409826 40.894146 -0.854312 -2.605429 -33.857513 12.078022 0.844234 -32.420212 -19.773882 -12.052060 54.934906 -0.203160 2.998076 -21.102350 3.222006 8.202352 
3.930467 41.613056 60.698452 3.681640 -0.361328 -143.789063 17.099609 4.404297 -1.904297 -14.033204 0.449219 -2.666016 -2.519531 -4.091797 -12.695313 26.191406 9.892579 -13.133088 2.080078 5.546875 0.136719 -88.496094 -49.160156 72.951599 -58.330082 -2.763672 -25.019529 12.167969 16.865234 3.030179 7.900391 2.021484 -0.098001 74.374992 21.142578 -12.646484 72.255859 3.740235 -66.094391 -2.861328 -8.457032 0.048828 3.311261 14.901728 1.144945 44.576000 -0.669839 -2.723931 -32.794083 11.233659 0.045692 -28.835402 -19.870436 -13.191280 57.207615 -0.361106 3.019212 -22.943817 2.966760 8.359595 
3.527415 41.073872 59.891117 6.328125 -1.591797 -143.095978 16.718750 3.242188 -1.747494 -14.550780 1.152344 -2.148241 0.673828 -3.408203 -13.095703 26.542969 10.244141 -13.826388 2.763672 6.259767 0.204013 -83.974609 -57.109375 71.583603 -60.712891 -2.607422 -20.546432 8.955078 16.464844 1.904297 7.382812 1.474609 -0.195313 75.947266 21.865234 -14.472655 76.093750 3.671875 -70.674454 -1.787109 -7.236328 -0.068359 4.910848 16.678841 1.463942 48.615379 -0.435724 -3.159373 -31.963835 10.087584 -0.716176 -25.993025 -20.006062 -13.842917 60.711605 -0.722706 3.138570 -24.154636 3.118077 8.530389 
3.170629 40.352528 59.088539 8.789063 -2.822265 -143.096176 16.699221 2.070312 -1.581678 -14.726564 1.328125 -1.621094 2.783203 -2.539063 -13.164063 27.431641 10.585938 -14.148596 3.632812 7.324219 0.214844 -72.783203 -67.060547 63.740234 -63.886723 -2.402344 -15.107421 6.357422 14.335937 1.162109 6.845703 0.781250 -0.087890 77.470703 25.000002 -15.923608 81.699219 3.691406 -75.488907 -1.787109 -4.951172 -0.068359 6.990371 18.404331 2.166012 52.470116 -0.175269 -3.240001 -31.883749 8.684198 -1.542910 -25.252769 -20.652838 -13.819524 65.809334 -0.907344 3.086879 -23.207617 4.643002 9.028232 
2.878692 39.477932 58.312664 10.546874 -3.876953 -143.984375 17.041016 1.123047 -1.542777 -14.902344 0.976563 -1.279297 3.818359 -1.279297 -12.900391 27.968748 10.751954 -14.130858 4.814453 8.935547 0.263672 -41.718750 -75.712891 34.003906 -66.445320 -2.080078 -10.517579 5.800781 9.628907 0.626635 6.494141 -0.292969 -0.146484 78.789063 30.751953 -15.966799 87.509766 3.564453 -77.275391 -1.601562 -1.259766 -0.224824 9.384077 19.892128 3.355263 55.295734 -0.175462 -3.222969 -32.924847 8.008977 -2.391686 -26.835281 -22.069515 -12.325450 72.283501 -1.435026 3.526145 -19.261621 7.491807 9.788935 
2.672733 38.504971 57.551624 11.777343 -4.580078 -145.038696 17.910156 0.341797 -1.435546 -14.550780 0.800781 -0.917832 3.798828 -0.722656 -12.412232 28.496094 11.093750 -13.757886 5.996094 9.667969 0.341797 10.859375 -75.292969 -19.824217 -67.792969 -1.972656 -8.173492 6.943359 4.365235 0.352307 5.966797 -2.031250 0.039409 78.671875 38.808594 -16.240234 93.066406 3.515625 -76.504501 -1.611328 1.904297 -0.224283 11.511709 20.994028 4.848181 57.403580 0.000194 -3.226378 -34.301018 6.983961 -2.648799 -30.008476 -24.197800 -10.222179 78.438858 -1.776930 3.489778 -15.970726 13.882920 10.948565 
2.582748 37.517437 56.761913 12.304688 -5.107422 -146.083984 18.613281 -0.380859 -1.494205 -14.033203 0.273438 -0.908203 2.714844 0.195313 -11.943353 29.033205 11.269530 -13.210982 7.500000 10.966796 0.449219 37.197266 -67.910156 -52.070313 -68.417969 -1.875000 -7.236329 7.421875 0.351563 -0.039001 5.253906 -4.326171 0.048828 76.914063 49.453125 -18.625391 97.792969 3.691406 -74.892578 -2.148437 3.486328 -0.253312 13.138374 21.917240 6.112594 59.680931 0.157572 -3.396264 -35.718342 7.052356 -2.489443 -34.380070 -26.304096 -7.932157 82.629448 -2.294600 3.534370 -14.577275 18.367399 11.528670 
2.606306 36.618549 55.872246 12.128906 -5.107422 -146.797745 19.316406 -0.546875 -1.543064 -14.033203 -0.781250 -0.908203 1.806641 1.289063 -11.493921 29.384766 11.259765 -12.675782 8.818359 12.265624 0.488281 45.693359 -60.244141 -68.876953 -68.710938 -2.041015 -8.671875 7.949218 -3.125000 -0.419922 4.199219 -6.777344 0.146484 70.537109 60.722656 -25.596954 101.201172 3.632813 -70.166016 -2.861328 4.541016 -0.292196 13.934772 22.685289 6.928980 61.765606 -0.029940 -3.439427 -36.020901 7.218969 -1.690673 -39.656826 -28.241083 -5.157053 84.037971 -2.304506 3.232998 -14.360022 16.573004 11.334422 
2.759925 35.874741 54.854111 11.416016 -4.921875 -147.129745 20.019531 -0.429688 -1.875000 -14.042968 -2.011719 -1.435890 0.722656 2.548828 -11.054254 29.384766 11.259765 -12.148438 10.136718 13.232421 0.576172 48.203125 -53.916016 -80.136719 -69.824219 -2.158203 -11.396116 9.951173 -6.894531 -1.065626 2.988281 -9.228516 0.332031 52.724609 71.083984 -43.701706 103.359375 3.750000 -63.076168 -4.794922 4.003906 -0.409473 14.499529 23.816856 7.421803 62.673367 0.147539 -3.362996 -36.172119 8.845810 -0.602471 -44.892990 -29.639015 -2.141721 82.460281 -2.132086 3.522407 -14.276863 11.511557 10.032995 
